<svg xmlns="http://www.w3.org/2000/svg" width="64" height="64" viewBox="0 0 64 64" fill="none">
  <defs>
    <linearGradient id="ticket" x1="15" y1="16" x2="55" y2="49" gradientUnits="userSpaceOnUse">
      <stop stop-color="#0EA5E9"/>
      <stop offset="1" stop-color="#0284C7"/>
    </linearGradient>
  </defs>
  <path d="M5 20h16M3 32h15M7 44h11" stroke="#0284C7" stroke-width="4.5" stroke-linecap="round" opacity=".35"/>
  <g transform="rotate(-11 36 32)">
    <path
      d="M17.5 16.5h31c2.9 0 5 2.1 5 5v4.2a8.2 8.2 0 0 0 0 14.6v4.2c0 2.9-2.1 5-5 5h-31c-2.9 0-5-2.1-5-5v-4.2a8.2 8.2 0 0 0 0-14.6v-4.2c0-2.9 2.1-5 5-5Z"
      fill="url(#ticket)"
    />
    <path d="M26 22.5v19" stroke="white" stroke-width="3" stroke-linecap="round" stroke-dasharray="2 5" opacity=".9"/>
    <path d="M33 26h10M33 35h7.5" stroke="white" stroke-width="3.2" stroke-linecap="round" opacity=".95"/>
  </g>
</svg>
